<svg xmlns="http://www.w3.org/2000/svg" viewBox="0 0 200 100" fill="none">
  <path d="M44.4 12.2c-3.7 0.8-7.1 2.1-9.9 4-1.3 0.9-3.7 3.2-5.2 5.1-1.5 1.9-3.4 5.2-4.2 7.2-1.3 3.5-1.5 4.6-1.5 10.5 0 5.9 0.2 7 1.5 10.5 0.8 2 2.7 5.3 4.2 7.2 1.5 1.9 3.9 4.2 5.2 5.1 2.8 1.9 6.2 3.2 9.9 4 3.7 0.8 12.3 0.8 16 0 3.7-0.8 7.1-2.1 9.9-4 1.3-0.9 3.7-3.2 5.2-5.1 1.5-1.9 3.4-5.2 4.2-7.2 1.3-3.5 1.5-4.6 1.5-10.5 0-5.9-0.2-7-1.5-10.5-0.8-2-2.7-5.3-4.2-7.2-1.5-1.9-3.9-4.2-5.2-5.1-2.8-1.9-6.2-3.2-9.9-4-3.7-0.8-12.3-0.8-16 0z" fill="#1D70B8"/>
  <path d="M44.4 54.2c-3.7 0.8-7.1 2.1-9.9 4-1.3 0.9-3.7 3.2-5.2 5.1-1.5 1.9-3.4 5.2-4.2 7.2-1.3 3.5-1.5 4.6-1.5 10.5 0 5.9 0.2 7 1.5 10.5 0.8 2 2.7 5.3 4.2 7.2 1.5 1.9 3.9 4.2 5.2 5.1 2.8 1.9 6.2 3.2 9.9 4 3.7 0.8 12.3 0.8 16 0 3.7-0.8 7.1-2.1 9.9-4 1.3-0.9 3.7-3.2 5.2-5.1 1.5-1.9 3.4-5.2 4.2-7.2 1.3-3.5 1.5-4.6 1.5-10.5 0-5.9-0.2-7-1.5-10.5-0.8-2-2.7-5.3-4.2-7.2-1.5-1.9-3.9-4.2-5.2-5.1-2.8-1.9-6.2-3.2-9.9-4-3.7-0.8-12.3-0.8-16 0z" fill="#D4AF37"/>
  <text x="110" y="45" font-family="Arial, sans-serif" font-weight="700" font-size="20" fill="#0B3C5D" text-anchor="middle">ГО</text>
  <text x="110" y="70" font-family="Arial, sans-serif" font-weight="700" font-size="16" fill="#0B3C5D" text-anchor="middle">КОНСУЛЬТАНТИ</text>
</svg> 